REM DIRINDEX 1\2,1\3
REM DIRNAME cjc102,folder01,folder02
TITLE ""
FILE "CD1Track27.mp3" MP3
  TRACK 01 AUDIO
    TITLE "0:"
    INDEX 01 00:00:00
  TRACK 02 AUDIO
    TITLE "3:cjc102_1145"
    INDEX 01 00:00:25
  TRACK 03 AUDIO
    TITLE "0:"
    INDEX 01 00:01:21
  TRACK 04 AUDIO
    TITLE "2:cjc102_1146"
    INDEX 01 00:01:28
  TRACK 05 AUDIO
    TITLE "0:"
    INDEX 01 00:02:43
  TRACK 06 AUDIO
    TITLE "3:cjc102_1147"
    INDEX 01 00:03:14
  TRACK 07 AUDIO
    TITLE "0:"
    INDEX 01 00:03:55
  TRACK 08 AUDIO
    TITLE "2:cjc102_1148"
    INDEX 01 00:03:57
  TRACK 09 AUDIO
    TITLE "0:"
    INDEX 01 00:04:60
  TRACK 10 AUDIO
    TITLE "3:cjc102_1149"
    INDEX 01 00:05:28
  TRACK 11 AUDIO
    TITLE "0:"
    INDEX 01 00:06:24
  TRACK 12 AUDIO
    TITLE "2:cjc102_1150"
    INDEX 01 00:06:28
  TRACK 13 AUDIO
    TITLE "0:"
    INDEX 01 00:07:21
  TRACK 14 AUDIO
    TITLE "3:cjc102_1151"
    INDEX 01 00:07:64
  TRACK 15 AUDIO
    TITLE "0:"
    INDEX 01 00:08:60
  TRACK 16 AUDIO
    TITLE "2:cjc102_1152"
    INDEX 01 00:08:64
  TRACK 17 AUDIO
    TITLE "0:"
    INDEX 01 00:09:69
  TRACK 18 AUDIO
    TITLE "3:cjc102_1153"
    INDEX 01 00:10:59
  TRACK 19 AUDIO
    TITLE "0:"
    INDEX 01 00:11:40
  TRACK 20 AUDIO
    TITLE "2:cjc102_1154"
    INDEX 01 00:11:42
  TRACK 21 AUDIO
    TITLE "0:"
    INDEX 01 00:12:40
  TRACK 22 AUDIO
    TITLE "3:cjc102_1155"
    INDEX 01 00:13:26
  TRACK 23 AUDIO
    TITLE "0:"
    INDEX 01 00:14:15
  TRACK 24 AUDIO
    TITLE "2:cjc102_1156"
    INDEX 01 00:14:21
  TRACK 25 AUDIO
    TITLE "0:"
    INDEX 01 00:15:19
  TRACK 26 AUDIO
    TITLE "3:cjc102_1157"
    INDEX 01 00:16:30
  TRACK 27 AUDIO
    TITLE "0:"
    INDEX 01 00:17:25
  TRACK 28 AUDIO
    TITLE "2:cjc102_1158"
    INDEX 01 00:17:35
  TRACK 29 AUDIO
    TITLE "0:"
    INDEX 01 00:18:31
  TRACK 30 AUDIO
    TITLE "3:cjc102_1159"
    INDEX 01 00:19:44
  TRACK 31 AUDIO
    TITLE "0:"
    INDEX 01 00:20:30
  TRACK 32 AUDIO
    TITLE "2:cjc102_1160"
    INDEX 01 00:20:39
  TRACK 33 AUDIO
    TITLE "0:"
    INDEX 01 00:21:45
  TRACK 34 AUDIO
    TITLE "3:cjc102_1161"
    INDEX 01 00:23:08
  TRACK 35 AUDIO
    TITLE "0:"
    INDEX 01 00:23:67
  TRACK 36 AUDIO
    TITLE "2:cjc102_1162"
    INDEX 01 00:24:00
  TRACK 37 AUDIO
    TITLE "0:"
    INDEX 01 00:24:63
  TRACK 38 AUDIO
    TITLE "3:cjc102_1163"
    INDEX 01 00:25:33
  TRACK 39 AUDIO
    TITLE "0:"
    INDEX 01 00:26:15
  TRACK 40 AUDIO
    TITLE "2:cjc102_1164"
    INDEX 01 00:26:18
  TRACK 41 AUDIO
    TITLE "0:"
    INDEX 01 00:27:30
  TRACK 42 AUDIO
    TITLE "3:cjc102_1165"
    INDEX 01 00:28:37
  TRACK 43 AUDIO
    TITLE "0:"
    INDEX 01 00:29:36
  TRACK 44 AUDIO
    TITLE "2:cjc102_1166"
    INDEX 01 00:29:38
  TRACK 45 AUDIO
    TITLE "0:"
    INDEX 01 00:30:34
  TRACK 46 AUDIO
    TITLE "3:cjc102_1167"
    INDEX 01 00:31:45
  TRACK 47 AUDIO
    TITLE "0:"
    INDEX 01 00:32:43
  TRACK 48 AUDIO
    TITLE "2:cjc102_1168"
    INDEX 01 00:32:45
  TRACK 49 AUDIO
    TITLE "0:"
    INDEX 01 00:33:46
  TRACK 50 AUDIO
    TITLE "3:cjc102_1169"
    INDEX 01 00:34:55
  TRACK 51 AUDIO
    TITLE "0:"
    INDEX 01 00:36:01
  TRACK 52 AUDIO
    TITLE "2:cjc102_1170"
    INDEX 01 00:36:33
  TRACK 53 AUDIO
    TITLE "0:"
    INDEX 01 00:37:24
  TRACK 54 AUDIO
    TITLE "3:cjc102_1171"
    INDEX 01 00:38:00
  TRACK 55 AUDIO
    TITLE "0:"
    INDEX 01 00:39:19
  TRACK 56 AUDIO
    TITLE "2:cjc102_1172"
    INDEX 01 00:39:60
  TRACK 57 AUDIO
    TITLE "0:"
    INDEX 01 00:40:58
  TRACK 58 AUDIO
    TITLE "3:cjc102_1173"
    INDEX 01 00:41:59
  TRACK 59 AUDIO
    TITLE "0:"
    INDEX 01 00:42:66
  TRACK 60 AUDIO
    TITLE "2:cjc102_1174"
    INDEX 01 00:43:23
  TRACK 61 AUDIO
    TITLE "0:"
    INDEX 01 00:44:36
  TRACK 62 AUDIO
    TITLE "3:cjc102_1175"
    INDEX 01 00:45:20
  TRACK 63 AUDIO
    TITLE "0:"
    INDEX 01 00:46:23
  TRACK 64 AUDIO
    TITLE "2:cjc102_1176"
    INDEX 01 00:46:27
  TRACK 65 AUDIO
    TITLE "0:"
    INDEX 01 00:47:21
  TRACK 66 AUDIO
    TITLE "3:cjc102_1177"
    INDEX 01 00:48:10
  TRACK 67 AUDIO
    TITLE "0:"
    INDEX 01 00:49:29
  TRACK 68 AUDIO
    TITLE "2:cjc102_1178"
    INDEX 01 00:49:31
  TRACK 69 AUDIO
    TITLE "0:"
    INDEX 01 00:50:33
  TRACK 70 AUDIO
    TITLE "3:cjc102_1179"
    INDEX 01 00:51:34
  TRACK 71 AUDIO
    TITLE "0:"
    INDEX 01 00:52:57
  TRACK 72 AUDIO
    TITLE "2:cjc102_1180"
    INDEX 01 00:52:63
  TRACK 73 AUDIO
    TITLE "0:"
    INDEX 01 00:53:64
  TRACK 74 AUDIO
    TITLE "3:cjc102_1181"
    INDEX 01 00:54:74
  TRACK 75 AUDIO
    TITLE "0:"
    INDEX 01 00:56:14
  TRACK 76 AUDIO
    TITLE "2:cjc102_1182"
    INDEX 01 00:56:18
  TRACK 77 AUDIO
    TITLE "0:"
    INDEX 01 00:57:07
  TRACK 78 AUDIO
    TITLE "3:cjc102_1183"
    INDEX 01 00:58:13
  TRACK 79 AUDIO
    TITLE "0:"
    INDEX 01 00:59:02
  TRACK 80 AUDIO
    TITLE "2:cjc102_1184"
    INDEX 01 00:59:04
  TRACK 81 AUDIO
    TITLE "0:"
    INDEX 01 01:00:06
  TRACK 82 AUDIO
    TITLE "3:cjc102_1185"
    INDEX 01 01:01:09
  TRACK 83 AUDIO
    TITLE "0:"
    INDEX 01 01:02:24
  TRACK 84 AUDIO
    TITLE "2:cjc102_1186"
    INDEX 01 01:02:28
  TRACK 85 AUDIO
    TITLE "0:"
    INDEX 01 01:03:27
  TRACK 86 AUDIO
    TITLE "3:cjc102_1187"
    INDEX 01 01:04:00
  TRACK 87 AUDIO
    TITLE "0:"
    INDEX 01 01:05:22
  TRACK 88 AUDIO
    TITLE "2:cjc102_1188"
    INDEX 01 01:05:42
  TRACK 89 AUDIO
    TITLE "0:"
    INDEX 01 01:06:45
  TRACK 90 AUDIO
    TITLE "3:cjc102_1189"
    INDEX 01 01:07:66
  TRACK 91 AUDIO
    TITLE "0:"
    INDEX 01 01:09:18
  TRACK 92 AUDIO
    TITLE "2:cjc102_1190"
    INDEX 01 01:09:26
  TRACK 93 AUDIO
    TITLE "0:"
    INDEX 01 01:10:18
  TRACK 94 AUDIO
    TITLE "3:cjc102_1191"
    INDEX 01 01:11:15
  TRACK 95 AUDIO
    TITLE "0:"
    INDEX 01 01:12:46
  TRACK 96 AUDIO
    TITLE "2:cjc102_1192"
    INDEX 01 01:12:70
  TRACK 97 AUDIO
    TITLE "0:"
    INDEX 01 01:13:69
  TRACK 98 AUDIO
    TITLE "3:cjc102_1193"
    INDEX 01 01:15:29
  TRACK 99 AUDIO
    TITLE "0:"
    INDEX 01 01:16:52
  TRACK 100 AUDIO
    TITLE "2:cjc102_1194"
    INDEX 01 01:17:20
  TRACK 101 AUDIO
    TITLE "0:"
    INDEX 01 01:18:31
  TRACK 102 AUDIO
    TITLE "2:cjc102_1195"
    INDEX 01 01:18:72
  TRACK 103 AUDIO
    TITLE "0:"
    INDEX 01 01:20:18
  TRACK 104 AUDIO
    TITLE "3:cjc102_1196"
    INDEX 01 01:21:37
  TRACK 105 AUDIO
    TITLE "0:"
    INDEX 01 01:22:68
  TRACK 106 AUDIO
    TITLE "2:cjc102_1197"
    INDEX 01 01:22:72
  TRACK 107 AUDIO
    TITLE "0:"
    INDEX 01 01:24:04
  TRACK 108 AUDIO
    TITLE "2:cjc102_1198"
    INDEX 01 01:24:55
  TRACK 109 AUDIO
    TITLE "0:"
    INDEX 01 01:25:58
  TRACK 110 AUDIO
    TITLE "3:cjc102_1199"
    INDEX 01 01:27:01
  TRACK 111 AUDIO
    TITLE "0:"
    INDEX 01 01:28:33
  TRACK 112 AUDIO
    TITLE "2:cjc102_1200"
    INDEX 01 01:28:35
  TRACK 113 AUDIO
    TITLE "0:"
    INDEX 01 01:29:52
  TRACK 114 AUDIO
    TITLE "2:cjc102_1201"
    INDEX 01 01:30:24
  TRACK 115 AUDIO
    TITLE "0:"
    INDEX 01 01:31:30
  TRACK 116 AUDIO
    TITLE "3:cjc102_1202"
    INDEX 01 01:32:27
  TRACK 117 AUDIO
    TITLE "0:"
    INDEX 01 01:33:60
  TRACK 118 AUDIO
    TITLE "2:cjc102_1203"
    INDEX 01 01:34:24
  TRACK 119 AUDIO
    TITLE "0:"
    INDEX 01 01:35:33
  TRACK 120 AUDIO
    TITLE "2:cjc102_1204"
    INDEX 01 01:36:23
  TRACK 121 AUDIO
    TITLE "0:"
    INDEX 01 01:37:46
  TRACK 122 AUDIO
    TITLE "3:cjc102_1205"
    INDEX 01 01:38:34
  TRACK 123 AUDIO
    TITLE "0:"
    INDEX 01 01:39:66
  TRACK 124 AUDIO
    TITLE "2:cjc102_1206"
    INDEX 01 01:40:07
  TRACK 125 AUDIO
    TITLE "0:"
    INDEX 01 01:41:28
  TRACK 126 AUDIO
    TITLE "2:cjc102_1207"
    INDEX 01 01:41:73
  TRACK 127 AUDIO
    TITLE "0:"
    INDEX 01 01:43:21
  TRACK 128 AUDIO
    TITLE "3:cjc102_1208"
    INDEX 01 01:44:09
  TRACK 129 AUDIO
    TITLE "0:"
    INDEX 01 01:45:28
  TRACK 130 AUDIO
    TITLE "2:cjc102_1209"
    INDEX 01 01:45:55
  TRACK 131 AUDIO
    TITLE "0:"
    INDEX 01 01:46:63
  TRACK 132 AUDIO
    TITLE "2:cjc102_1210"
    INDEX 01 01:47:35
  TRACK 133 AUDIO
    TITLE "0:"
    INDEX 01 01:48:48
  TRACK 134 AUDIO
    TITLE "3:cjc102_1211"
    INDEX 01 01:49:26
  TRACK 135 AUDIO
    TITLE "0:"
    INDEX 01 01:50:60
  TRACK 136 AUDIO
    TITLE "2:cjc102_1212"
    INDEX 01 01:51:09
  TRACK 137 AUDIO
    TITLE "0:"
    INDEX 01 01:52:34
  TRACK 138 AUDIO
    TITLE "2:cjc102_1213"
    INDEX 01 01:53:06
  TRACK 139 AUDIO
    TITLE "0:"
    INDEX 01 01:54:21
  TRACK 140 AUDIO
    TITLE "3:cjc102_1214"
    INDEX 01 01:55:24
  TRACK 141 AUDIO
    TITLE "0:"
    INDEX 01 01:56:55
  TRACK 142 AUDIO
    TITLE "2:cjc102_1215"
    INDEX 01 01:57:27
  TRACK 143 AUDIO
    TITLE "0:"
    INDEX 01 01:58:21
  TRACK 144 AUDIO
    TITLE "2:cjc102_1216"
    INDEX 01 01:59:03
  TRACK 145 AUDIO
    TITLE "0:"
    INDEX 01 02:00:10
  TRACK 146 AUDIO
    TITLE "3:cjc102_1217"
    INDEX 01 02:00:72
  TRACK 147 AUDIO
    TITLE "0:"
    INDEX 01 02:02:40
  TRACK 148 AUDIO
    TITLE "2:cjc102_1218"
    INDEX 01 02:02:58
  TRACK 149 AUDIO
    TITLE "0:"
    INDEX 01 02:03:69
  TRACK 150 AUDIO
    TITLE "2:cjc102_1219"
    INDEX 01 02:04:41
  TRACK 151 AUDIO
    TITLE "0:"
    INDEX 01 02:05:66
